<svg width="1836" height="587" viewBox="0 0 1836 587" fill="none" xmlns="http://www.w3.org/2000/svg">
<rect x="2" y="2" width="1831.06" height="582.07" rx="291.035" fill="white"/>
<rect x="2" y="2" width="1831.06" height="582.07" rx="291.035" stroke="#C7C7C7" stroke-width="4"/>
<rect x="52" y="52" width="1731.06" height="482.068" rx="241.034" fill="#F6F6F6" stroke="#C7C7C7" stroke-width="4"/>
<circle cx="293.03" cy="293.03" r="181.649" fill="#F9F9F9" stroke="#EBEBEB" stroke-width="12.5275"/>
<path d="M230.229 202.163C246.374 202.163 261.68 211.464 273.229 227.896C284.764 244.307 292.115 267.341 292.115 293.106C292.115 318.872 284.764 341.907 273.229 358.318C261.68 374.749 246.374 384.05 230.229 384.05C214.085 384.05 198.779 374.749 187.229 358.318C175.694 341.907 168.343 318.872 168.343 293.106C168.343 267.341 175.695 244.307 187.229 227.896C198.779 211.464 214.085 202.163 230.229 202.163Z" fill="#F6F6F6" stroke="#444444" stroke-width="13.7015"/>
<path d="M355.839 202.163C371.984 202.163 387.289 211.464 398.838 227.896C410.373 244.307 417.725 267.341 417.725 293.106C417.725 318.872 410.373 341.907 398.838 358.318C387.289 374.749 371.984 384.05 355.839 384.05C339.694 384.05 324.388 374.749 312.839 358.318C301.304 341.907 293.952 318.872 293.952 293.106C293.952 267.341 301.304 244.307 312.839 227.896C324.388 211.464 339.694 202.163 355.839 202.163Z" fill="#F6F6F6" stroke="#444444" stroke-width="13.7015"/>
<mask id="path-6-inside-1_2337_83729" fill="white">
<path d="M230.229 256.539C231.915 256.539 232.709 258.516 231.988 260.041C230.871 262.406 230.231 265.161 230.23 268.102C230.23 276.902 235.966 284.036 243.041 284.036C248.802 284.036 257.895 284.339 258.255 290.089C258.317 291.08 258.349 292.083 258.349 293.095C258.349 313.284 245.759 329.65 230.229 329.65C214.699 329.65 202.109 313.284 202.109 293.095C202.11 272.906 214.699 256.539 230.229 256.539Z"/>
</mask>
<path d="M230.229 256.539C231.915 256.539 232.709 258.516 231.988 260.041C230.871 262.406 230.231 265.161 230.23 268.102C230.23 276.902 235.966 284.036 243.041 284.036C248.802 284.036 257.895 284.339 258.255 290.089C258.317 291.08 258.349 292.083 258.349 293.095C258.349 313.284 245.759 329.65 230.229 329.65C214.699 329.65 202.109 313.284 202.109 293.095C202.11 272.906 214.699 256.539 230.229 256.539Z" fill="#444444"/>
<path d="M230.229 256.539V256.05H230.229L230.229 256.539ZM230.23 268.102L229.741 268.102V268.102H230.23ZM243.041 284.036V284.525H243.041L243.041 284.036ZM258.349 293.095H258.838V293.095L258.349 293.095ZM230.229 329.65L230.229 330.14H230.229V329.65ZM202.109 293.095L201.62 293.095V293.095H202.109ZM231.988 260.041L231.546 259.832C230.397 262.263 229.741 265.09 229.741 268.102L230.23 268.102L230.72 268.102C230.72 265.231 231.345 262.548 232.431 260.25L231.988 260.041ZM230.23 268.102H229.741C229.741 277.067 235.602 284.525 243.041 284.525V284.036V283.547C236.331 283.547 230.72 276.737 230.72 268.102H230.23ZM258.255 290.089L257.767 290.12C257.828 291.101 257.859 292.093 257.859 293.095L258.349 293.095L258.838 293.095C258.838 292.073 258.806 291.06 258.743 290.059L258.255 290.089ZM258.349 293.095H257.859C257.859 303.091 254.742 312.123 249.724 318.645C244.707 325.167 237.81 329.161 230.229 329.161V329.65V330.14C238.177 330.14 245.34 325.95 250.5 319.242C255.66 312.534 258.838 303.288 258.838 293.095H258.349ZM230.229 329.65L230.229 329.161C222.647 329.161 215.75 325.167 210.733 318.645C205.716 312.122 202.599 303.091 202.599 293.095H202.109H201.62C201.62 303.288 204.798 312.534 209.957 319.242C215.118 325.95 222.28 330.14 230.229 330.14L230.229 329.65ZM202.109 293.095L202.599 293.095C202.599 283.099 205.716 274.067 210.733 267.545C215.75 261.022 222.647 257.029 230.229 257.028L230.229 256.539L230.229 256.05C222.28 256.05 215.118 260.239 209.957 266.948C204.798 273.656 201.62 282.902 201.62 293.095L202.109 293.095ZM243.041 284.036L243.041 284.525C245.926 284.525 249.58 284.603 252.55 285.38C255.542 286.162 257.608 287.583 257.767 290.12L258.255 290.089L258.743 290.059C258.542 286.846 255.881 285.24 252.797 284.433C249.69 283.621 245.918 283.547 243.041 283.547L243.041 284.036ZM230.229 256.539V257.028C230.851 257.028 231.314 257.383 231.567 257.925C231.825 258.479 231.843 259.202 231.546 259.832L231.988 260.041L232.431 260.25C232.853 259.355 232.835 258.327 232.454 257.512C232.069 256.684 231.293 256.05 230.229 256.05V256.539Z" fill="#444444" mask="url(#path-6-inside-1_2337_83729)"/>
<mask id="path-8-inside-2_2337_83729" fill="white">
<path d="M355.847 256.539C358.751 256.539 359.518 260.466 358.127 263.016C356.736 265.565 355.923 268.641 355.923 271.954C355.923 280.754 361.658 287.888 368.732 287.889C369.1 287.889 369.463 287.869 369.823 287.832C374.987 287.29 383.967 287.902 383.967 293.095C383.967 313.284 371.377 329.65 355.847 329.65C340.317 329.65 327.727 313.284 327.727 293.095C327.727 272.906 340.317 256.539 355.847 256.539Z"/>
</mask>
<path d="M355.847 256.539C358.751 256.539 359.518 260.466 358.127 263.016C356.736 265.565 355.923 268.641 355.923 271.954C355.923 280.754 361.658 287.888 368.732 287.889C369.1 287.889 369.463 287.869 369.823 287.832C374.987 287.29 383.967 287.902 383.967 293.095C383.967 313.284 371.377 329.65 355.847 329.65C340.317 329.65 327.727 313.284 327.727 293.095C327.727 272.906 340.317 256.539 355.847 256.539Z" fill="#444444"/>
<path d="M355.847 256.539V256.05H355.847L355.847 256.539ZM355.923 271.954L355.434 271.954V271.954H355.923ZM368.732 287.889L368.732 288.378H368.732V287.889ZM383.967 293.095H384.456V293.095L383.967 293.095ZM355.847 329.65L355.847 330.14H355.847V329.65ZM327.727 293.095L327.237 293.095V293.095H327.727ZM369.823 287.832L369.772 287.345L369.823 287.832ZM358.127 263.016L357.697 262.781C356.266 265.404 355.434 268.562 355.434 271.954L355.923 271.954L356.412 271.954C356.412 268.721 357.206 265.725 358.556 263.25L358.127 263.016ZM355.923 271.954H355.434C355.434 280.919 361.293 288.378 368.732 288.378L368.732 287.889L368.732 287.399C362.022 287.399 356.412 280.589 356.412 271.954H355.923ZM368.732 287.889V288.378C369.117 288.378 369.498 288.358 369.874 288.318L369.823 287.832L369.772 287.345C369.429 287.381 369.083 287.399 368.732 287.399V287.889ZM383.967 293.095H383.477C383.477 303.091 380.36 312.123 375.343 318.645C370.326 325.167 363.428 329.161 355.847 329.161V329.65V330.14C363.795 330.14 370.958 325.95 376.118 319.242C381.278 312.534 384.456 303.288 384.456 293.095H383.967ZM355.847 329.65L355.847 329.161C348.265 329.161 341.368 325.167 336.351 318.645C331.333 312.122 328.216 303.091 328.216 293.095H327.727H327.237C327.237 303.288 330.415 312.534 335.575 319.242C340.735 325.95 347.898 330.14 355.847 330.14L355.847 329.65ZM327.727 293.095L328.216 293.095C328.216 283.099 331.333 274.067 336.351 267.544C341.368 261.022 348.265 257.028 355.847 257.028L355.847 256.539L355.847 256.05C347.898 256.05 340.736 260.239 335.575 266.948C330.415 273.656 327.237 282.902 327.237 293.095L327.727 293.095ZM369.823 287.832L369.874 288.318C372.422 288.051 375.895 288.072 378.711 288.787C380.12 289.145 381.324 289.667 382.167 290.38C382.995 291.079 383.477 291.96 383.477 293.095L383.967 293.095L384.456 293.095C384.456 291.633 383.816 290.491 382.799 289.632C381.797 288.786 380.434 288.215 378.952 287.839C375.987 287.085 372.388 287.071 369.772 287.345L369.823 287.832ZM355.847 256.539V257.028C357.017 257.028 357.788 257.798 358.128 258.959C358.473 260.135 358.331 261.62 357.697 262.781L358.127 263.016L358.556 263.25C359.314 261.862 359.485 260.109 359.067 258.684C358.646 257.244 357.581 256.05 355.847 256.05V256.539Z" fill="#444444" mask="url(#path-8-inside-2_2337_83729)"/>
<path d="M603.013 209.289L649.542 322.551H651.505L697.918 209.289H740.752V376.469H707.039V266.901H705.653L662.011 375.661H638.805L595.278 266.67H593.892V376.469H560.295V209.289H603.013ZM819.959 378.893C807.49 378.893 796.599 376.199 787.285 370.811C777.972 365.423 770.814 357.842 765.81 348.067C760.807 338.291 758.306 327.015 758.306 314.238C758.306 301.307 760.807 289.992 765.81 280.294C770.814 270.519 777.972 262.937 787.285 257.549C796.599 252.162 807.49 249.468 819.959 249.468C832.351 249.468 843.204 252.162 852.518 257.549C861.908 262.937 869.066 270.519 873.992 280.294C878.918 289.992 881.382 301.307 881.382 314.238C881.382 327.015 878.918 338.291 873.992 348.067C869.066 357.842 861.908 365.423 852.518 370.811C843.204 376.199 832.351 378.893 819.959 378.893ZM820.19 352.454C825.886 352.454 830.697 350.799 834.622 347.489C838.624 344.18 841.626 339.638 843.628 333.866C845.629 328.016 846.629 321.396 846.629 314.007C846.629 306.541 845.629 299.922 843.628 294.149C841.626 288.376 838.624 283.835 834.622 280.525C830.697 277.215 825.886 275.561 820.19 275.561C814.34 275.561 809.376 277.215 805.296 280.525C801.217 283.835 798.138 288.376 796.06 294.149C793.982 299.845 792.943 306.464 792.943 314.007C792.943 321.473 793.982 328.093 796.06 333.866C798.138 339.638 801.217 344.18 805.296 347.489C809.376 350.799 814.34 352.454 820.19 352.454ZM898.243 251.084H931.263V272.905H932.648C934.881 265.208 938.691 259.358 944.079 255.356C949.466 251.276 955.701 249.237 962.782 249.237C966.477 249.237 970.133 249.621 973.751 250.391V280.871C972.288 280.333 970.095 279.909 967.17 279.601C964.245 279.217 961.551 279.024 959.088 279.024C954.008 279.024 949.466 280.14 945.464 282.372C941.462 284.528 938.267 287.606 935.881 291.609C933.572 295.534 932.418 300.076 932.418 305.233V376.469H898.243V251.084ZM1057.23 288.376C1056.46 283.758 1054.27 280.179 1050.65 277.639C1047.03 275.099 1042.37 273.829 1036.68 273.829C1032.98 273.829 1029.67 274.367 1026.75 275.445C1023.82 276.446 1021.48 277.947 1019.71 279.948C1018.01 281.872 1017.17 284.066 1017.17 286.529C1017.09 289.454 1018.32 291.994 1020.86 294.149C1023.48 296.304 1027.63 297.959 1033.33 299.113L1055.96 303.732C1068.12 306.195 1077.17 310.236 1083.09 315.855C1089.1 321.396 1092.1 328.67 1092.1 337.676C1092.1 345.835 1089.75 353.031 1085.05 359.266C1080.44 365.423 1073.93 370.234 1065.54 373.698C1057.23 377.161 1047.53 378.893 1036.45 378.893C1025.29 378.893 1015.63 377.315 1007.47 374.16C999.386 370.927 992.998 366.386 988.303 360.536C983.608 354.609 980.798 347.566 979.874 339.407H1014.16C1015.17 344.18 1017.55 347.836 1021.32 350.376C1025.17 352.839 1030.25 354.07 1036.56 354.07C1040.64 354.07 1044.22 353.57 1047.3 352.569C1050.46 351.569 1052.88 350.106 1054.57 348.182C1056.34 346.181 1057.23 343.872 1057.23 341.255C1057.23 337.868 1055.84 335.136 1053.07 333.057C1050.38 330.979 1046.11 329.363 1040.26 328.208L1019.48 324.052C1007.47 321.666 998.386 317.471 992.228 311.467C986.148 305.464 983.146 297.843 983.223 288.607C983.223 280.602 985.378 273.675 989.688 267.825C993.999 261.898 1000.12 257.357 1008.05 254.201C1016.05 251.045 1025.44 249.468 1036.22 249.468C1046.68 249.468 1055.81 251.045 1063.58 254.201C1071.35 257.357 1077.43 261.86 1081.82 267.71C1086.21 273.559 1088.67 280.448 1089.21 288.376H1057.23ZM1108.38 251.084H1141.98V272.097H1143.6C1145.67 267.863 1148.1 264.13 1150.87 260.898C1153.72 257.665 1157.53 254.971 1162.3 252.816C1167.07 250.584 1172.73 249.468 1179.27 249.468C1188.74 249.468 1197.32 251.892 1205.02 256.741C1212.71 261.59 1218.8 268.864 1223.26 278.562C1227.8 288.261 1230.07 300.037 1230.07 313.892C1230.07 327.439 1227.88 339.1 1223.49 348.875C1219.1 358.573 1213.06 365.924 1205.36 370.927C1197.67 375.93 1188.93 378.431 1179.16 378.431C1172.84 378.431 1167.3 377.354 1162.53 375.199C1157.76 373.044 1153.91 370.427 1150.98 367.348C1148.14 364.269 1145.67 360.651 1143.6 356.495H1142.56V423.575H1108.38V251.084ZM1141.63 313.661C1141.63 321.127 1142.71 327.708 1144.87 333.404C1147.02 339.1 1150.1 343.487 1154.1 346.566C1158.1 349.645 1162.95 351.184 1168.65 351.184C1174.27 351.184 1179.08 349.606 1183.08 346.45C1187.16 343.294 1190.2 338.907 1192.2 333.288C1194.28 327.593 1195.32 321.05 1195.32 313.661C1195.32 306.272 1194.28 299.806 1192.2 294.264C1190.2 288.722 1187.2 284.451 1183.2 281.449C1179.19 278.37 1174.34 276.831 1168.65 276.831C1162.95 276.831 1158.1 278.331 1154.1 281.333C1150.1 284.258 1147.02 288.492 1144.87 294.033C1142.71 299.575 1141.63 306.118 1141.63 313.661ZM1304.2 378.893C1291.58 378.893 1280.57 376.276 1271.18 371.042C1261.86 365.808 1254.67 358.342 1249.59 348.644C1244.58 338.946 1242.08 327.554 1242.08 314.469C1242.08 301.538 1244.58 290.185 1249.59 280.41C1254.67 270.557 1261.79 262.937 1270.95 257.549C1280.11 252.162 1290.73 249.468 1302.81 249.468C1314.13 249.468 1324.21 251.854 1333.06 256.626C1341.91 261.321 1348.88 268.441 1353.96 277.985C1359.04 287.529 1361.58 299.19 1361.58 312.968V322.551H1256.05V301.192H1329.37C1329.37 296.112 1328.25 291.609 1326.02 287.683C1323.79 283.681 1320.71 280.564 1316.78 278.331C1312.86 276.099 1308.39 274.983 1303.39 274.983C1298.08 274.983 1293.35 276.215 1289.19 278.678C1285.03 281.064 1281.76 284.374 1279.38 288.607C1277.07 292.84 1275.87 297.459 1275.8 302.462V322.551C1275.8 328.786 1276.99 334.25 1279.38 338.946C1281.76 343.641 1285.11 347.22 1289.42 349.683C1293.81 352.146 1298.89 353.378 1304.66 353.378C1308.51 353.378 1312.01 352.839 1315.17 351.761C1318.32 350.607 1320.98 349.144 1323.13 347.374C1325.37 345.527 1327.06 343.371 1328.21 340.908H1360.77C1359.16 348.528 1355.81 355.225 1350.73 360.998C1345.72 366.694 1339.22 371.119 1331.22 374.275C1323.29 377.354 1314.28 378.893 1304.2 378.893ZM1451.87 322.32C1448.79 322.397 1443.37 322.705 1435.59 323.244L1424.51 324.167C1418.43 324.629 1413.66 326.284 1410.19 329.132C1406.73 331.903 1405 335.674 1405 340.447C1405 343.525 1405.77 346.142 1407.31 348.298C1408.92 350.453 1411.15 352.108 1414 353.262C1416.93 354.417 1420.2 354.994 1423.82 354.994C1428.97 354.994 1433.55 353.993 1437.55 351.992C1441.56 349.914 1444.67 347.105 1446.91 343.564C1449.14 339.946 1450.25 335.982 1450.25 331.672L1450.02 291.147C1450.02 287.606 1449.25 284.605 1447.71 282.141C1446.25 279.601 1443.98 277.716 1440.9 276.484C1437.9 275.176 1434.32 274.521 1430.17 274.521C1424.39 274.521 1419.7 275.753 1416.08 278.216C1412.46 280.602 1410.19 283.989 1409.27 288.376H1376.71C1377.48 280.987 1380.06 274.367 1384.44 268.518C1388.91 262.591 1395.07 257.934 1402.92 254.548C1410.85 251.161 1420.2 249.468 1430.97 249.468C1440.67 249.468 1449.52 250.968 1457.53 253.97C1465.53 256.972 1471.96 261.667 1476.81 268.056C1481.74 274.367 1484.2 282.334 1484.2 291.955V376.469H1451.76V359.15H1450.83C1448.75 363.076 1446.02 366.501 1442.63 369.426C1439.25 372.351 1435.17 374.66 1430.4 376.353C1425.7 377.97 1420.24 378.778 1414 378.778C1405.92 378.778 1398.76 377.354 1392.53 374.506C1386.29 371.658 1381.37 367.425 1377.75 361.806C1374.13 356.187 1372.32 349.414 1372.32 341.486C1372.32 328.401 1376.63 318.895 1385.25 312.968C1393.95 307.041 1405.19 303.655 1418.97 302.808C1421.28 302.577 1428.39 302.192 1440.33 301.653L1451.64 301.192L1451.87 322.32ZM1536.39 298.883H1541.47L1582.22 251.084H1621.6L1567.33 314.007H1559.36L1536.39 339.869V298.883ZM1505.45 209.289H1539.62V376.469H1505.45V209.289ZM1546.43 321.627L1569.18 297.382L1623.9 376.469H1583.84L1546.43 321.627Z" fill="#444444"/>
</svg>
