<svg width="129" height="36" viewBox="0 0 129 36" fill="none" xmlns="http://www.w3.org/2000/svg">
<rect x="6.10348e-05" width="128.504" height="35.9998" rx="18" fill="#F6F6F6"/>
<circle cx="17.9996" cy="17.9995" r="13.4535" fill="#F9F9F9" stroke="#EBEBEB" stroke-width="0.927835"/>
<path d="M13.3489 11.2707C14.5446 11.2707 15.6781 11.9592 16.5335 13.176C17.3878 14.3915 17.9329 16.0977 17.9329 18.0061C17.9328 19.9143 17.3878 21.6207 16.5335 22.8361C15.6781 24.0528 14.5445 24.7414 13.3489 24.7414C12.1533 24.7413 11.0197 24.0528 10.1644 22.8361C9.31006 21.6207 8.76597 19.9143 8.76594 18.0061C8.76594 16.0977 9.31004 14.3915 10.1644 13.176C11.0197 11.9592 12.1532 11.2708 13.3489 11.2707Z" fill="#F6F6F6" stroke="#444444" stroke-width="1.01478"/>
<path d="M22.6519 11.2707C23.8476 11.2707 24.9811 11.9592 25.8364 13.176C26.6908 14.3915 27.2358 16.0977 27.2358 18.0061C27.2358 19.9143 26.6907 21.6207 25.8364 22.8361C24.9811 24.0528 23.8475 24.7414 22.6519 24.7414C21.4563 24.7413 20.3227 24.0528 19.4673 22.8361C18.613 21.6207 18.0689 19.9143 18.0689 18.0061C18.0689 16.0977 18.613 14.3915 19.4673 13.176C20.3227 11.9592 21.4562 11.2708 22.6519 11.2707Z" fill="#F6F6F6" stroke="#444444" stroke-width="1.01478"/>
<mask id="path-5-inside-1_6_5" fill="white">
<path d="M13.3491 15.2975C13.4727 15.2975 13.5311 15.4444 13.4785 15.5563C13.3961 15.7317 13.3491 15.9361 13.3491 16.1539C13.3491 16.8055 13.7735 17.3334 14.2973 17.3336C14.7236 17.3336 15.3967 17.3552 15.424 17.7806C15.4287 17.8544 15.4311 17.9291 15.4311 18.0045C15.4311 19.4996 14.4991 20.7122 13.3491 20.7125C12.1989 20.7125 11.2661 19.4998 11.2661 18.0045C11.2663 16.5094 12.199 15.2975 13.3491 15.2975Z"/>
</mask>
<path d="M13.3491 15.2975C13.4727 15.2975 13.5311 15.4444 13.4785 15.5563C13.3961 15.7317 13.3491 15.9361 13.3491 16.1539C13.3491 16.8055 13.7735 17.3334 14.2973 17.3336C14.7236 17.3336 15.3967 17.3552 15.424 17.7806C15.4287 17.8544 15.4311 17.9291 15.4311 18.0045C15.4311 19.4996 14.4991 20.7122 13.3491 20.7125C12.1989 20.7125 11.2661 19.4998 11.2661 18.0045C11.2663 16.5094 12.199 15.2975 13.3491 15.2975Z" fill="#444444"/>
<path d="M13.3491 15.2975L13.3491 15.2612H13.3491V15.2975ZM13.3491 16.1539H13.3129V16.1539L13.3491 16.1539ZM14.2973 17.3336L14.2973 17.3698H14.2973V17.3336ZM15.4311 18.0045H15.4674V18.0045L15.4311 18.0045ZM13.3491 20.7125V20.7487H13.3491L13.3491 20.7125ZM11.2661 18.0045L11.2299 18.0045V18.0045H11.2661ZM15.424 17.7806L15.3878 17.7829L15.424 17.7806ZM13.4785 15.5563L13.4457 15.5409L13.4785 15.5563ZM13.4785 15.5563L13.4457 15.5409C13.3609 15.7212 13.3129 15.9309 13.3129 16.1539H13.3491H13.3853C13.3853 15.9412 13.4312 15.7421 13.5113 15.5717L13.4785 15.5563ZM13.3491 16.1539L13.3129 16.1539C13.3129 16.8178 13.7465 17.3696 14.2973 17.3698L14.2973 17.3336L14.2973 17.2973C13.8005 17.2971 13.3854 16.7933 13.3853 16.1539L13.3491 16.1539ZM15.424 17.7806L15.3878 17.7829C15.3925 17.856 15.3949 17.9299 15.3949 18.0045L15.4311 18.0045L15.4674 18.0045C15.4673 17.9283 15.4649 17.8529 15.4601 17.7783L15.424 17.7806ZM15.4311 18.0045H15.3949C15.3949 18.7447 15.1641 19.4137 14.7926 19.897C14.4212 20.3801 13.9105 20.6761 13.3491 20.6762L13.3491 20.7125L13.3491 20.7487C13.9377 20.7486 14.4681 20.4381 14.8501 19.9411C15.2321 19.4442 15.4674 18.7593 15.4674 18.0045H15.4311ZM13.3491 20.7125V20.6762C12.7876 20.6762 12.2767 20.3803 11.905 19.8971C11.5333 19.4139 11.3023 18.7448 11.3023 18.0045H11.2661H11.2299C11.2299 18.7594 11.4653 19.4443 11.8475 19.9413C12.2298 20.4383 12.7604 20.7487 13.3491 20.7487V20.7125ZM11.2661 18.0045L11.3023 18.0045C11.3025 16.52 12.2273 15.3337 13.3491 15.3337V15.2975V15.2612C12.1707 15.2612 11.23 16.4988 11.2299 18.0045L11.2661 18.0045ZM14.2973 17.3336V17.3698C14.5108 17.3698 14.7813 17.3754 15.0012 17.4326C15.2227 17.4903 15.3758 17.5952 15.3878 17.7829L15.424 17.7806L15.4601 17.7783C15.4449 17.5406 15.2478 17.422 15.0194 17.3625C14.7894 17.3026 14.5102 17.2973 14.2973 17.2973V17.3336ZM13.3491 15.2975L13.3491 15.3337C13.3943 15.3337 13.4283 15.3598 13.447 15.4001C13.466 15.4413 13.4673 15.4948 13.4457 15.5409L13.4785 15.5563L13.5113 15.5717C13.5422 15.5059 13.5407 15.43 13.5128 15.3697C13.4845 15.3086 13.4275 15.2612 13.3491 15.2612L13.3491 15.2975Z" fill="#444444" mask="url(#path-5-inside-1_6_5)"/>
<mask id="path-7-inside-2_6_5" fill="white">
<path d="M22.6525 15.2975C22.867 15.2975 22.9235 15.5898 22.8206 15.7781C22.7177 15.9666 22.6574 16.194 22.6574 16.4391C22.6574 17.0908 23.0826 17.6197 23.6066 17.6197C23.6338 17.6197 23.6608 17.6183 23.6874 17.6155C24.0695 17.5753 24.7345 17.6202 24.7345 18.0045C24.7345 19.4996 23.8026 20.7122 22.6525 20.7125C21.5023 20.7125 20.5695 19.4998 20.5695 18.0045C20.5697 16.5094 21.5024 15.2975 22.6525 15.2975Z"/>
</mask>
<path d="M22.6525 15.2975C22.867 15.2975 22.9235 15.5898 22.8206 15.7781C22.7177 15.9666 22.6574 16.194 22.6574 16.4391C22.6574 17.0908 23.0826 17.6197 23.6066 17.6197C23.6338 17.6197 23.6608 17.6183 23.6874 17.6155C24.0695 17.5753 24.7345 17.6202 24.7345 18.0045C24.7345 19.4996 23.8026 20.7122 22.6525 20.7125C21.5023 20.7125 20.5695 19.4998 20.5695 18.0045C20.5697 16.5094 21.5024 15.2975 22.6525 15.2975Z" fill="#444444"/>
<path d="M22.6525 15.2975L22.6525 15.2612H22.6525V15.2975ZM22.6574 16.4391L22.6211 16.4391V16.4391H22.6574ZM23.6066 17.6197V17.656H23.6066L23.6066 17.6197ZM24.7345 18.0045H24.7708V18.0045L24.7345 18.0045ZM22.6525 20.7125V20.7487H22.6525L22.6525 20.7125ZM20.5695 18.0045L20.5333 18.0045V18.0045H20.5695ZM22.8206 15.7781L22.7888 15.7607C22.6829 15.9547 22.6212 16.1881 22.6211 16.4391L22.6574 16.4391L22.6936 16.4391C22.6936 16.1999 22.7525 15.9785 22.8524 15.7954L22.8206 15.7781ZM22.6574 16.4391H22.6211C22.6211 17.1031 23.0556 17.656 23.6066 17.656V17.6197V17.5835C23.1096 17.5835 22.6936 17.0786 22.6936 16.4391H22.6574ZM23.6066 17.6197L23.6066 17.656C23.6351 17.656 23.6633 17.6545 23.6912 17.6515L23.6874 17.6155L23.6836 17.5794C23.6582 17.5821 23.6325 17.5835 23.6066 17.5835L23.6066 17.6197ZM24.7345 18.0045H24.6983C24.6983 18.7447 24.4675 19.4138 24.0961 19.897C23.7246 20.3801 23.2139 20.6761 22.6525 20.6762L22.6525 20.7125L22.6525 20.7487C23.2411 20.7486 23.7715 20.4381 24.1535 19.9411C24.5355 19.4442 24.7708 18.7593 24.7708 18.0045H24.7345ZM22.6525 20.7125V20.6762C22.091 20.6762 21.5801 20.3803 21.2084 19.8971C20.8367 19.4139 20.6058 18.7448 20.6058 18.0045H20.5695H20.5333C20.5333 18.7594 20.7687 19.4443 21.151 19.9413C21.5332 20.4383 22.0638 20.7487 22.6525 20.7487V20.7125ZM20.5695 18.0045L20.6058 18.0045C20.6059 16.52 21.5307 15.3337 22.6525 15.3337V15.2975V15.2612C21.4741 15.2612 20.5335 16.4988 20.5333 18.0045L20.5695 18.0045ZM23.6874 17.6155L23.6912 17.6515C23.8797 17.6317 24.1369 17.6331 24.3453 17.686C24.4496 17.7124 24.5388 17.751 24.6013 17.8037C24.6626 17.8554 24.6983 17.9205 24.6983 18.0045L24.7345 18.0045L24.7708 18.0045C24.7708 17.8963 24.7233 17.8118 24.648 17.7482C24.5738 17.6857 24.4729 17.6435 24.3632 17.6157C24.1436 17.56 23.8772 17.5591 23.6836 17.5794L23.6874 17.6155ZM22.6525 15.2975L22.6525 15.3337C22.7387 15.3337 22.7957 15.3908 22.8208 15.4773C22.8462 15.5647 22.8356 15.675 22.7888 15.7607L22.8206 15.7781L22.8524 15.7954C22.9085 15.6928 22.9211 15.5628 22.8904 15.4571C22.8594 15.3503 22.7808 15.2612 22.6525 15.2612L22.6525 15.2975Z" fill="#444444" mask="url(#path-7-inside-2_6_5)"/>
<path d="M40.958 12.1336L44.4041 20.5221H44.5495L47.987 12.1336H51.1594V24.5155H48.6625V16.4006H48.5599L45.3276 24.4556H43.6089L40.3851 16.3834H40.2825V24.5155H37.7942V12.1336H40.958ZM57.0257 24.695C56.1022 24.695 55.2956 24.4955 54.6058 24.0965C53.916 23.6974 53.3859 23.1359 53.0153 22.4119C52.6448 21.6879 52.4595 20.8528 52.4595 19.9065C52.4595 18.9488 52.6448 18.1108 53.0153 17.3925C53.3859 16.6685 53.916 16.107 54.6058 15.7079C55.2956 15.3089 56.1022 15.1093 57.0257 15.1093C57.9436 15.1093 58.7473 15.3089 59.4371 15.7079C60.1326 16.107 60.6628 16.6685 61.0276 17.3925C61.3925 18.1108 61.5749 18.9488 61.5749 19.9065C61.5749 20.8528 61.3925 21.6879 61.0276 22.4119C60.6628 23.1359 60.1326 23.6974 59.4371 24.0965C58.7473 24.4955 57.9436 24.695 57.0257 24.695ZM57.0428 22.7369C57.4647 22.7369 57.821 22.6143 58.1117 22.3692C58.4082 22.124 58.6305 21.7877 58.7787 21.3601C58.9269 20.9269 59.001 20.4366 59.001 19.8894C59.001 19.3364 58.9269 18.8461 58.7787 18.4186C58.6305 17.991 58.4082 17.6547 58.1117 17.4096C57.821 17.1644 57.4647 17.0419 57.0428 17.0419C56.6096 17.0419 56.2419 17.1644 55.9398 17.4096C55.6376 17.6547 55.4096 17.991 55.2557 18.4186C55.1018 18.8404 55.0248 19.3307 55.0248 19.8894C55.0248 20.4423 55.1018 20.9326 55.2557 21.3601C55.4096 21.7877 55.6376 22.124 55.9398 22.3692C56.2419 22.6143 56.6096 22.7369 57.0428 22.7369ZM62.8237 15.2291H65.2693V16.8452H65.3719C65.5372 16.2751 65.8194 15.8419 66.2184 15.5454C66.6175 15.2433 67.0792 15.0922 67.6037 15.0922C67.8773 15.0922 68.1481 15.1207 68.416 15.1778V17.4352C68.3077 17.3953 68.1453 17.364 67.9286 17.3412C67.712 17.3127 67.5125 17.2984 67.3301 17.2984C66.9538 17.2984 66.6175 17.3811 66.321 17.5464C66.0246 17.706 65.788 17.934 65.6113 18.2305C65.4403 18.5212 65.3548 18.8575 65.3548 19.2395V24.5155H62.8237V15.2291ZM74.5988 17.991C74.5418 17.649 74.3793 17.3839 74.1114 17.1958C73.8434 17.0077 73.4985 16.9136 73.0767 16.9136C72.8031 16.9136 72.5579 16.9535 72.3413 17.0333C72.1247 17.1074 71.9508 17.2186 71.8197 17.3668C71.6943 17.5093 71.6316 17.6718 71.6316 17.8542C71.6259 18.0708 71.7171 18.259 71.9052 18.4186C72.099 18.5782 72.4069 18.7008 72.8287 18.7863L74.5047 19.1283C75.4054 19.3107 76.0753 19.61 76.5142 20.0262C76.9589 20.4366 77.1812 20.9753 77.1812 21.6423C77.1812 22.2466 77.0073 22.7796 76.6596 23.2414C76.3175 23.6974 75.8358 24.0537 75.2144 24.3102C74.5988 24.5668 73.8805 24.695 73.0596 24.695C72.233 24.695 71.5176 24.5782 70.9133 24.3444C70.3147 24.105 69.8416 23.7687 69.4938 23.3354C69.1461 22.8965 68.938 22.3749 68.8696 21.7706H71.4092C71.4834 22.124 71.6601 22.3948 71.9394 22.5829C72.2244 22.7654 72.6007 22.8566 73.0681 22.8566C73.3703 22.8566 73.6354 22.8195 73.8634 22.7454C74.0971 22.6713 74.2767 22.563 74.4021 22.4205C74.5332 22.2723 74.5988 22.1012 74.5988 21.9074C74.5988 21.6566 74.4962 21.4542 74.2909 21.3003C74.0914 21.1464 73.775 21.0267 73.3418 20.9411L71.8026 20.6333C70.9133 20.4566 70.2406 20.1459 69.7846 19.7012C69.3342 19.2566 69.1119 18.6922 69.1176 18.0081C69.1176 17.4153 69.2772 16.9022 69.5964 16.469C69.9157 16.03 70.3689 15.6937 70.956 15.4599C71.5489 15.2262 72.2444 15.1093 73.0425 15.1093C73.8178 15.1093 74.4933 15.2262 75.0691 15.4599C75.6449 15.6937 76.0952 16.0272 76.4201 16.4604C76.7451 16.8937 76.9275 17.4039 76.9674 17.991H74.5988ZM78.3872 15.2291H80.8756V16.7853H80.9953C81.1492 16.4718 81.3288 16.1953 81.534 15.9559C81.7449 15.7165 82.0271 15.5169 82.3805 15.3573C82.734 15.192 83.153 15.1093 83.6375 15.1093C84.3387 15.1093 84.9744 15.2889 85.5444 15.6481C86.1145 16.0072 86.5648 16.5459 86.8955 17.2642C87.2318 17.9825 87.4 18.8547 87.4 19.8808C87.4 20.8841 87.2375 21.7478 86.9126 22.4718C86.5876 23.1901 86.1401 23.7345 85.5701 24.105C85 24.4756 84.353 24.6608 83.629 24.6608C83.1615 24.6608 82.7511 24.581 82.3976 24.4214C82.0442 24.2618 81.7592 24.068 81.5425 23.8399C81.3316 23.6119 81.1492 23.344 80.9953 23.0361H80.9183V28.0043H78.3872V15.2291ZM80.8499 19.8637C80.8499 20.4167 80.9297 20.9041 81.0893 21.3259C81.249 21.7478 81.477 22.0727 81.7734 22.3008C82.0699 22.5288 82.429 22.6428 82.8509 22.6428C83.267 22.6428 83.6233 22.5259 83.9197 22.2922C84.2219 22.0585 84.447 21.7335 84.5953 21.3174C84.7492 20.8955 84.8261 20.411 84.8261 19.8637C84.8261 19.3164 84.7492 18.8376 84.5953 18.4271C84.447 18.0167 84.2247 17.7003 83.9283 17.478C83.6318 17.25 83.2727 17.1359 82.8509 17.1359C82.429 17.1359 82.0699 17.2471 81.7734 17.4694C81.477 17.6861 81.249 17.9996 81.0893 18.41C80.9297 18.8205 80.8499 19.305 80.8499 19.8637ZM92.8901 24.695C91.9552 24.695 91.14 24.5012 90.4445 24.1136C89.7547 23.7259 89.2217 23.173 88.8455 22.4547C88.4749 21.7364 88.2896 20.8927 88.2896 19.9236C88.2896 18.9659 88.4749 18.125 88.8455 17.401C89.2217 16.6713 89.749 16.107 90.4274 15.7079C91.1058 15.3089 91.8925 15.1093 92.7875 15.1093C93.6255 15.1093 94.3723 15.2861 95.0278 15.6395C95.6834 15.9873 96.1993 16.5146 96.5756 17.2214C96.9518 17.9283 97.14 18.792 97.14 19.8124V20.5221H89.3243V18.9402H94.7542C94.7542 18.564 94.6716 18.2305 94.5062 17.9397C94.3409 17.6433 94.1129 17.4124 93.8222 17.2471C93.5314 17.0818 93.2008 16.9991 92.8302 16.9991C92.4369 16.9991 92.0863 17.0903 91.7785 17.2728C91.4706 17.4495 91.2283 17.6946 91.0516 18.0081C90.8806 18.3217 90.7922 18.6637 90.7865 19.0343V20.5221C90.7865 20.9839 90.8749 21.3886 91.0516 21.7364C91.2283 22.0841 91.4763 22.3492 91.7956 22.5316C92.1205 22.7141 92.4967 22.8053 92.9243 22.8053C93.2093 22.8053 93.4687 22.7654 93.7024 22.6856C93.9362 22.6 94.1328 22.4917 94.2925 22.3606C94.4578 22.2238 94.5832 22.0642 94.6687 21.8818H97.0801C96.9604 22.4461 96.7124 22.9421 96.3362 23.3696C95.9656 23.7915 95.4839 24.1193 94.891 24.353C94.3039 24.581 93.6369 24.695 92.8901 24.695ZM103.827 20.505C103.599 20.5107 103.197 20.5335 102.621 20.5734L101.801 20.6419C101.35 20.6761 100.997 20.7986 100.74 21.0096C100.484 21.2148 100.355 21.4941 100.355 21.8476C100.355 22.0756 100.412 22.2694 100.526 22.429C100.646 22.5886 100.812 22.7112 101.022 22.7967C101.239 22.8822 101.481 22.925 101.749 22.925C102.131 22.925 102.47 22.8509 102.767 22.7027C103.063 22.5487 103.294 22.3407 103.459 22.0784C103.625 21.8105 103.707 21.5169 103.707 21.1977L103.69 18.1963C103.69 17.934 103.633 17.7117 103.519 17.5293C103.411 17.3412 103.243 17.2015 103.015 17.1103C102.793 17.0134 102.527 16.9649 102.22 16.9649C101.792 16.9649 101.444 17.0561 101.176 17.2386C100.908 17.4153 100.74 17.6661 100.672 17.991H98.2605C98.3175 17.4438 98.5085 16.9535 98.8334 16.5203C99.164 16.0813 99.6201 15.7364 100.202 15.4856C100.789 15.2348 101.481 15.1093 102.279 15.1093C102.998 15.1093 103.653 15.2205 104.246 15.4428C104.839 15.6652 105.315 16.0129 105.674 16.4861C106.039 16.9535 106.221 17.5435 106.221 18.2561V24.5155H103.819V23.2328H103.75C103.596 23.5236 103.394 23.7772 103.143 23.9939C102.892 24.2105 102.59 24.3815 102.237 24.5069C101.889 24.6266 101.484 24.6865 101.022 24.6865C100.424 24.6865 99.8937 24.581 99.432 24.3701C98.9702 24.1592 98.6054 23.8456 98.3374 23.4295C98.0695 23.0133 97.9355 22.5117 97.9355 21.9245C97.9355 20.9554 98.2548 20.2514 98.8932 19.8124C99.5374 19.3735 100.37 19.1226 101.39 19.0599C101.561 19.0428 102.088 19.0143 102.972 18.9744L103.81 18.9402L103.827 20.505ZM110.087 18.7692H110.463L113.482 15.2291H116.398L112.379 19.8894H111.789L110.087 21.8048V18.7692ZM107.795 12.1336H110.326V24.5155H107.795V12.1336ZM110.831 20.4537L112.515 18.658L116.569 24.5155H113.601L110.831 20.4537Z" fill="#444444"/>
</svg>
