<svg width="1736" height="487" viewBox="0 0 1736 487" fill="none" xmlns="http://www.w3.org/2000/svg">
<rect width="1735.06" height="486.068" rx="243.034" fill="#F6F6F6"/>
<circle cx="243.03" cy="243.03" r="181.649" fill="#F9F9F9" stroke="#EBEBEB" stroke-width="12.5275"/>
<path d="M180.229 152.163C196.374 152.163 211.68 161.464 223.229 177.896C234.764 194.307 242.115 217.341 242.115 243.106C242.115 268.872 234.764 291.907 223.229 308.318C211.68 324.749 196.374 334.05 180.229 334.05C164.085 334.05 148.779 324.749 137.229 308.318C125.694 291.907 118.343 268.872 118.343 243.106C118.343 217.341 125.695 194.307 137.229 177.896C148.779 161.464 164.085 152.163 180.229 152.163Z" fill="#F6F6F6" stroke="#444444" stroke-width="13.7015"/>
<path d="M305.839 152.163C321.984 152.163 337.289 161.464 348.838 177.896C360.373 194.307 367.725 217.341 367.725 243.106C367.725 268.872 360.373 291.907 348.838 308.318C337.289 324.749 321.984 334.05 305.839 334.05C289.694 334.05 274.388 324.749 262.839 308.318C251.304 291.907 243.952 268.872 243.952 243.106C243.952 217.341 251.304 194.307 262.839 177.896C274.388 161.464 289.694 152.163 305.839 152.163Z" fill="#F6F6F6" stroke="#444444" stroke-width="13.7015"/>
<mask id="path-5-inside-1_2498_82886" fill="white">
<path d="M180.229 206.539C181.915 206.539 182.709 208.516 181.988 210.041C180.871 212.406 180.231 215.161 180.23 218.102C180.23 226.902 185.966 234.036 193.041 234.036C198.802 234.036 207.895 234.339 208.255 240.089C208.317 241.08 208.349 242.083 208.349 243.095C208.349 263.284 195.759 279.65 180.229 279.65C164.699 279.65 152.109 263.284 152.109 243.095C152.11 222.906 164.699 206.539 180.229 206.539Z"/>
</mask>
<path d="M180.229 206.539C181.915 206.539 182.709 208.516 181.988 210.041C180.871 212.406 180.231 215.161 180.23 218.102C180.23 226.902 185.966 234.036 193.041 234.036C198.802 234.036 207.895 234.339 208.255 240.089C208.317 241.08 208.349 242.083 208.349 243.095C208.349 263.284 195.759 279.65 180.229 279.65C164.699 279.65 152.109 263.284 152.109 243.095C152.11 222.906 164.699 206.539 180.229 206.539Z" fill="#444444"/>
<path d="M180.229 206.539V206.05H180.229L180.229 206.539ZM180.23 218.102L179.741 218.102V218.102H180.23ZM193.041 234.036V234.525H193.041L193.041 234.036ZM208.349 243.095H208.838V243.095L208.349 243.095ZM180.229 279.65L180.229 280.14H180.229V279.65ZM152.109 243.095L151.62 243.095V243.095H152.109ZM181.988 210.041L181.546 209.832C180.397 212.263 179.741 215.09 179.741 218.102L180.23 218.102L180.72 218.102C180.72 215.231 181.345 212.548 182.431 210.25L181.988 210.041ZM180.23 218.102H179.741C179.741 227.067 185.602 234.525 193.041 234.525V234.036V233.547C186.331 233.547 180.72 226.737 180.72 218.102H180.23ZM208.255 240.089L207.767 240.12C207.828 241.101 207.859 242.093 207.859 243.095L208.349 243.095L208.838 243.095C208.838 242.073 208.806 241.06 208.743 240.059L208.255 240.089ZM208.349 243.095H207.859C207.859 253.091 204.742 262.123 199.724 268.645C194.707 275.167 187.81 279.161 180.229 279.161V279.65V280.14C188.177 280.14 195.34 275.95 200.5 269.242C205.66 262.534 208.838 253.288 208.838 243.095H208.349ZM180.229 279.65L180.229 279.161C172.647 279.161 165.75 275.167 160.733 268.645C155.716 262.122 152.599 253.091 152.599 243.095H152.109H151.62C151.62 253.288 154.798 262.534 159.957 269.242C165.118 275.95 172.28 280.14 180.229 280.14L180.229 279.65ZM152.109 243.095L152.599 243.095C152.599 233.099 155.716 224.067 160.733 217.545C165.75 211.022 172.647 207.029 180.229 207.028L180.229 206.539L180.229 206.05C172.28 206.05 165.118 210.239 159.957 216.948C154.798 223.656 151.62 232.902 151.62 243.095L152.109 243.095ZM193.041 234.036L193.041 234.525C195.926 234.525 199.58 234.603 202.55 235.38C205.542 236.162 207.608 237.583 207.767 240.12L208.255 240.089L208.743 240.059C208.542 236.846 205.881 235.24 202.797 234.433C199.69 233.621 195.918 233.547 193.041 233.547L193.041 234.036ZM180.229 206.539V207.028C180.851 207.028 181.314 207.383 181.567 207.925C181.825 208.479 181.843 209.202 181.546 209.832L181.988 210.041L182.431 210.25C182.853 209.355 182.835 208.327 182.454 207.512C182.069 206.684 181.293 206.05 180.229 206.05V206.539Z" fill="#444444" mask="url(#path-5-inside-1_2498_82886)"/>
<mask id="path-7-inside-2_2498_82886" fill="white">
<path d="M305.847 206.539C308.751 206.539 309.518 210.466 308.127 213.016C306.736 215.565 305.923 218.641 305.923 221.954C305.923 230.754 311.658 237.888 318.732 237.889C319.1 237.889 319.463 237.869 319.823 237.832C324.987 237.29 333.967 237.902 333.967 243.095C333.967 263.284 321.377 279.65 305.847 279.65C290.317 279.65 277.727 263.284 277.727 243.095C277.727 222.906 290.317 206.539 305.847 206.539Z"/>
</mask>
<path d="M305.847 206.539C308.751 206.539 309.518 210.466 308.127 213.016C306.736 215.565 305.923 218.641 305.923 221.954C305.923 230.754 311.658 237.888 318.732 237.889C319.1 237.889 319.463 237.869 319.823 237.832C324.987 237.29 333.967 237.902 333.967 243.095C333.967 263.284 321.377 279.65 305.847 279.65C290.317 279.65 277.727 263.284 277.727 243.095C277.727 222.906 290.317 206.539 305.847 206.539Z" fill="#444444"/>
<path d="M305.847 206.539V206.05H305.847L305.847 206.539ZM305.923 221.954L305.434 221.954V221.954H305.923ZM318.732 237.889L318.732 238.378H318.732V237.889ZM333.967 243.095H334.456V243.095L333.967 243.095ZM305.847 279.65L305.847 280.14H305.847V279.65ZM277.727 243.095L277.237 243.095V243.095H277.727ZM319.823 237.832L319.772 237.345L319.823 237.832ZM308.127 213.016L307.697 212.781C306.266 215.404 305.434 218.562 305.434 221.954L305.923 221.954L306.412 221.954C306.412 218.721 307.206 215.725 308.556 213.25L308.127 213.016ZM305.923 221.954H305.434C305.434 230.919 311.293 238.378 318.732 238.378L318.732 237.889L318.732 237.399C312.022 237.399 306.412 230.589 306.412 221.954H305.923ZM318.732 237.889V238.378C319.117 238.378 319.498 238.358 319.874 238.318L319.823 237.832L319.772 237.345C319.429 237.381 319.083 237.399 318.732 237.399V237.889ZM333.967 243.095H333.477C333.477 253.091 330.36 262.123 325.343 268.645C320.326 275.167 313.428 279.161 305.847 279.161V279.65V280.14C313.795 280.14 320.958 275.95 326.118 269.242C331.278 262.534 334.456 253.288 334.456 243.095H333.967ZM305.847 279.65L305.847 279.161C298.265 279.161 291.368 275.167 286.351 268.645C281.333 262.122 278.216 253.091 278.216 243.095H277.727H277.237C277.237 253.288 280.415 262.534 285.575 269.242C290.735 275.95 297.898 280.14 305.847 280.14L305.847 279.65ZM277.727 243.095L278.216 243.095C278.216 233.099 281.333 224.067 286.351 217.544C291.368 211.022 298.265 207.028 305.847 207.028L305.847 206.539L305.847 206.05C297.898 206.05 290.736 210.239 285.575 216.948C280.415 223.656 277.237 232.902 277.237 243.095L277.727 243.095ZM319.823 237.832L319.874 238.318C322.422 238.051 325.895 238.072 328.711 238.787C330.12 239.145 331.324 239.667 332.167 240.38C332.995 241.079 333.477 241.96 333.477 243.095L333.967 243.095L334.456 243.095C334.456 241.633 333.816 240.491 332.799 239.632C331.797 238.786 330.434 238.215 328.952 237.839C325.987 237.085 322.388 237.071 319.772 237.345L319.823 237.832ZM305.847 206.539V207.028C307.017 207.028 307.788 207.798 308.128 208.959C308.473 210.135 308.331 211.62 307.697 212.781L308.127 213.016L308.556 213.25C309.314 211.862 309.485 210.109 309.067 208.684C308.646 207.244 307.581 206.05 305.847 206.05V206.539Z" fill="#444444" mask="url(#path-7-inside-2_2498_82886)"/>
<path d="M553.013 159.289L599.542 272.551H601.505L647.918 159.289H690.752V326.469H657.039V216.901H655.653L612.011 325.661H588.805L545.278 216.67H543.892V326.469H510.295V159.289H553.013ZM769.959 328.893C757.49 328.893 746.599 326.199 737.285 320.811C727.972 315.423 720.814 307.842 715.81 298.067C710.807 288.291 708.306 277.015 708.306 264.238C708.306 251.307 710.807 239.992 715.81 230.294C720.814 220.519 727.972 212.937 737.285 207.549C746.599 202.162 757.49 199.468 769.959 199.468C782.351 199.468 793.204 202.162 802.518 207.549C811.908 212.937 819.066 220.519 823.992 230.294C828.918 239.992 831.382 251.307 831.382 264.238C831.382 277.015 828.918 288.291 823.992 298.067C819.066 307.842 811.908 315.423 802.518 320.811C793.204 326.199 782.351 328.893 769.959 328.893ZM770.19 302.454C775.886 302.454 780.697 300.799 784.622 297.489C788.624 294.18 791.626 289.638 793.628 283.866C795.629 278.016 796.629 271.396 796.629 264.007C796.629 256.541 795.629 249.922 793.628 244.149C791.626 238.376 788.624 233.835 784.622 230.525C780.697 227.215 775.886 225.561 770.19 225.561C764.34 225.561 759.376 227.215 755.296 230.525C751.217 233.835 748.138 238.376 746.06 244.149C743.982 249.845 742.943 256.464 742.943 264.007C742.943 271.473 743.982 278.093 746.06 283.866C748.138 289.638 751.217 294.18 755.296 297.489C759.376 300.799 764.34 302.454 770.19 302.454ZM848.243 201.084H881.263V222.905H882.648C884.881 215.208 888.691 209.358 894.079 205.356C899.466 201.276 905.701 199.237 912.782 199.237C916.477 199.237 920.133 199.621 923.751 200.391V230.871C922.288 230.333 920.095 229.909 917.17 229.601C914.245 229.217 911.551 229.024 909.088 229.024C904.008 229.024 899.466 230.14 895.464 232.372C891.462 234.528 888.267 237.606 885.881 241.609C883.572 245.534 882.418 250.076 882.418 255.233V326.469H848.243V201.084ZM1007.23 238.376C1006.46 233.758 1004.27 230.179 1000.65 227.639C997.031 225.099 992.374 223.829 986.679 223.829C982.984 223.829 979.674 224.367 976.749 225.445C973.825 226.446 971.477 227.947 969.707 229.948C968.013 231.872 967.167 234.066 967.167 236.529C967.09 239.454 968.321 241.994 970.861 244.149C973.478 246.304 977.635 247.959 983.33 249.113L1005.96 253.732C1018.12 256.195 1027.17 260.236 1033.09 265.855C1039.1 271.396 1042.1 278.67 1042.1 287.676C1042.1 295.835 1039.75 303.031 1035.05 309.266C1030.44 315.423 1023.93 320.234 1015.54 323.698C1007.23 327.161 997.531 328.893 986.448 328.893C975.287 328.893 965.627 327.315 957.468 324.16C949.386 320.927 942.998 316.386 938.303 310.536C933.608 304.609 930.798 297.566 929.874 289.407H964.165C965.165 294.18 967.551 297.836 971.323 300.376C975.172 302.839 980.252 304.07 986.563 304.07C990.643 304.07 994.222 303.57 997.301 302.569C1000.46 301.569 1002.88 300.106 1004.57 298.182C1006.34 296.181 1007.23 293.872 1007.23 291.255C1007.23 287.868 1005.84 285.136 1003.07 283.057C1000.38 280.979 996.107 279.363 990.258 278.208L969.476 274.052C957.468 271.666 948.386 267.471 942.228 261.467C936.148 255.464 933.146 247.843 933.223 238.607C933.223 230.602 935.378 223.675 939.688 217.825C943.999 211.898 950.118 207.357 958.046 204.201C966.051 201.045 975.441 199.468 986.217 199.468C996.685 199.468 1005.81 201.045 1013.58 204.201C1021.35 207.357 1027.43 211.86 1031.82 217.71C1036.21 223.559 1038.67 230.448 1039.21 238.376H1007.23ZM1058.38 201.084H1091.98V222.097H1093.6C1095.67 217.863 1098.1 214.13 1100.87 210.898C1103.72 207.665 1107.53 204.971 1112.3 202.816C1117.07 200.584 1122.73 199.468 1129.27 199.468C1138.74 199.468 1147.32 201.892 1155.02 206.741C1162.71 211.59 1168.8 218.864 1173.26 228.562C1177.8 238.261 1180.07 250.037 1180.07 263.892C1180.07 277.439 1177.88 289.1 1173.49 298.875C1169.1 308.573 1163.06 315.924 1155.36 320.927C1147.67 325.93 1138.93 328.431 1129.16 328.431C1122.84 328.431 1117.3 327.354 1112.53 325.199C1107.76 323.044 1103.91 320.427 1100.98 317.348C1098.14 314.269 1095.67 310.651 1093.6 306.495H1092.56V373.575H1058.38V201.084ZM1091.63 263.661C1091.63 271.127 1092.71 277.708 1094.87 283.404C1097.02 289.1 1100.1 293.487 1104.1 296.566C1108.1 299.645 1112.95 301.184 1118.65 301.184C1124.27 301.184 1129.08 299.606 1133.08 296.45C1137.16 293.294 1140.2 288.907 1142.2 283.288C1144.28 277.593 1145.32 271.05 1145.32 263.661C1145.32 256.272 1144.28 249.806 1142.2 244.264C1140.2 238.722 1137.2 234.451 1133.2 231.449C1129.19 228.37 1124.34 226.831 1118.65 226.831C1112.95 226.831 1108.1 228.331 1104.1 231.333C1100.1 234.258 1097.02 238.492 1094.87 244.033C1092.71 249.575 1091.63 256.118 1091.63 263.661ZM1254.2 328.893C1241.58 328.893 1230.57 326.276 1221.18 321.042C1211.86 315.808 1204.67 308.342 1199.59 298.644C1194.58 288.946 1192.08 277.554 1192.08 264.469C1192.08 251.538 1194.58 240.185 1199.59 230.41C1204.67 220.557 1211.79 212.937 1220.95 207.549C1230.11 202.162 1240.73 199.468 1252.81 199.468C1264.13 199.468 1274.21 201.854 1283.06 206.626C1291.91 211.321 1298.88 218.441 1303.96 227.985C1309.04 237.529 1311.58 249.19 1311.58 262.968V272.551H1206.05V251.192H1279.37C1279.37 246.112 1278.25 241.609 1276.02 237.683C1273.79 233.681 1270.71 230.564 1266.78 228.331C1262.86 226.099 1258.39 224.983 1253.39 224.983C1248.08 224.983 1243.35 226.215 1239.19 228.678C1235.03 231.064 1231.76 234.374 1229.38 238.607C1227.07 242.84 1225.87 247.459 1225.8 252.462V272.551C1225.8 278.786 1226.99 284.25 1229.38 288.946C1231.76 293.641 1235.11 297.22 1239.42 299.683C1243.81 302.146 1248.89 303.378 1254.66 303.378C1258.51 303.378 1262.01 302.839 1265.17 301.761C1268.32 300.607 1270.98 299.144 1273.13 297.374C1275.37 295.527 1277.06 293.371 1278.21 290.908H1310.77C1309.16 298.528 1305.81 305.225 1300.73 310.998C1295.72 316.694 1289.22 321.119 1281.22 324.275C1273.29 327.354 1264.28 328.893 1254.2 328.893ZM1401.87 272.32C1398.79 272.397 1393.37 272.705 1385.59 273.244L1374.51 274.167C1368.43 274.629 1363.66 276.284 1360.19 279.132C1356.73 281.903 1355 285.674 1355 290.447C1355 293.525 1355.77 296.142 1357.31 298.298C1358.92 300.453 1361.15 302.108 1364 303.262C1366.93 304.417 1370.2 304.994 1373.82 304.994C1378.97 304.994 1383.55 303.993 1387.55 301.992C1391.56 299.914 1394.67 297.105 1396.91 293.564C1399.14 289.946 1400.25 285.982 1400.25 281.672L1400.02 241.147C1400.02 237.606 1399.25 234.605 1397.71 232.141C1396.25 229.601 1393.98 227.716 1390.9 226.484C1387.9 225.176 1384.32 224.521 1380.17 224.521C1374.39 224.521 1369.7 225.753 1366.08 228.216C1362.46 230.602 1360.19 233.989 1359.27 238.376H1326.71C1327.48 230.987 1330.06 224.367 1334.44 218.518C1338.91 212.591 1345.07 207.934 1352.92 204.548C1360.85 201.161 1370.2 199.468 1380.97 199.468C1390.67 199.468 1399.52 200.968 1407.53 203.97C1415.53 206.972 1421.96 211.667 1426.81 218.056C1431.74 224.367 1434.2 232.334 1434.2 241.955V326.469H1401.76V309.15H1400.83C1398.75 313.076 1396.02 316.501 1392.63 319.426C1389.25 322.351 1385.17 324.66 1380.4 326.353C1375.7 327.97 1370.24 328.778 1364 328.778C1355.92 328.778 1348.76 327.354 1342.53 324.506C1336.29 321.658 1331.37 317.425 1327.75 311.806C1324.13 306.187 1322.32 299.414 1322.32 291.486C1322.32 278.401 1326.63 268.895 1335.25 262.968C1343.95 257.041 1355.19 253.655 1368.97 252.808C1371.28 252.577 1378.39 252.192 1390.33 251.653L1401.64 251.192L1401.87 272.32ZM1486.39 248.883H1491.47L1532.22 201.084H1571.6L1517.33 264.007H1509.36L1486.39 289.869V248.883ZM1455.45 159.289H1489.62V326.469H1455.45V159.289ZM1496.43 271.627L1519.18 247.382L1573.9 326.469H1533.84L1496.43 271.627Z" fill="#444444"/>
</svg>
